# xmcd
#
# Track frame offsets: 
#        150
#        13731
#        29980
#        41073
#        60986
#        81078
#        97587
#        114844
#        128557
#        150563
#        162697
#        181154
#        200699
#        216947
#
# Disc length: 2916 seconds
#
# Revision: 1
# Processed by: cddbd v1.5.2PL0 Copyright (c) Steve Scherf et al.
# Submitted via: ExactAudioCopy v0.95a5
#
DISCID=b50b620e
DTITLE=Corbier - Tout pour être heureux
DYEAR=2005
DGENRE=Cabaret
TTITLE0=Règles bleues
TTITLE1=L'apostat
TTITLE2=L'arrêt du 118
TTITLE3=Fichue journée (t'as pas du sucre ?)
TTITLE4=La savane
TTITLE5=Belette
TTITLE6=Drosera
TTITLE7=C'était le bon temps
TTITLE8=Verglas blues
TTITLE9=La fée
TTITLE10=Joli monde
TTITLE11=Roméo
TTITLE12=Smoking blues
TTITLE13=Philosophie
EXTD=
EXTT0=
EXTT1=
EXTT2=
EXTT3=
EXTT4=
EXTT5=
EXTT6=
EXTT7=
EXTT8=
EXTT9=
EXTT10=
EXTT11=
EXTT12=
EXTT13=
PLAYORDER=
